# xmcd
#
# Track frame offsets: 
#        150
#        13705
#        29322
#        49005
#        57125
#        74300
#        89797
#        109175
#        127257
#        147040
#
# Disc length: 2123 seconds
#
# Revision: 3
# Processed by: cddbd v1.5.2PL0 Copyright (c) Steve Scherf et al.
# Submitted via: ExactAudioCopy v0.99pb5
#
DISCID=8e08490a
DTITLE=The Gibb Droll Band - Narrow Mouth Jar
DYEAR=1995
DGENRE=Blues
TTITLE0=Time
TTITLE1=Changes
TTITLE2=You're Gonna Need Me
TTITLE3=Ducky
TTITLE4=Drop Dee
TTITLE5=Crown
TTITLE6=Blue Love Shawl
TTITLE7=Fade Away
TTITLE8=Carrie
TTITLE9=A Dobro Of Adam's 
EXTD=
EXTT0=
EXTT1=
EXTT2=
EXTT3=
EXTT4=
EXTT5=
EXTT6=
EXTT7=
EXTT8=
EXTT9=
PLAYORDER=
